<!-- SpeedXPCB Favicon 32x32 -->
<svg xmlns="http://www.w3.org/2000/svg" viewBox="0 0 32 32" width="32" height="32">
  <defs>
    <linearGradient id="favicon32Gradient" x1="0%" y1="0%" x2="100%" y2="100%">
      <stop offset="0%" style="stop-color:#2B7CE9;stop-opacity:1" />
      <stop offset="50%" style="stop-color:#2563EB;stop-opacity:1" />
      <stop offset="100%" style="stop-color:#1E40AF;stop-opacity:1" />
    </linearGradient>
  </defs>
  
  <!-- Background -->
  <rect width="32" height="32" rx="4" fill="url(#favicon32Gradient)" />
  
  <!-- Speed lines -->
  <g stroke="white" fill="none" opacity="0.8">
    <path d="M4,10 Q12,8 20,11" stroke-width="1"/>
    <path d="M5,14 Q13,12 21,15" stroke-width="0.8"/>
    <path d="M4,22 Q12,24 20,21" stroke-width="1"/>
    <path d="M5,18 Q13,20 21,17" stroke-width="0.8"/>
  </g>
  
  <!-- S letter -->
  <path d="M10,7 Q15,5 19,7 Q20,8 19,9 L15,13 Q16,14 17,15 Q19,18 15,21 Q11,24 7,21 Q6,20 7,19 L11,15 Q10,14 9,13 Q7,10 11,7 Q13,5 10,7 Z" 
        fill="white" opacity="0.95"/>
  
  <!-- Speed accents -->
  <g fill="white" opacity="0.6">
    <polygon points="24,11 27,12 24,13"/>
    <polygon points="25,8 28,9 25,10"/>
    <polygon points="23,18 26,19 23,20"/>
  </g>
</svg> 