<!-- SpeedXPCB Favicon 16x16 -->
<svg xmlns="http://www.w3.org/2000/svg" viewBox="0 0 16 16" width="16" height="16">
  <defs>
    <linearGradient id="favicon16Gradient" x1="0%" y1="0%" x2="100%" y2="100%">
      <stop offset="0%" style="stop-color:#2B7CE9;stop-opacity:1" />
      <stop offset="100%" style="stop-color:#1E40AF;stop-opacity:1" />
    </linearGradient>
  </defs>
  
  <!-- Background -->
  <rect width="16" height="16" rx="2" fill="url(#favicon16Gradient)" />
  
  <!-- Minimal speed lines -->
  <g stroke="white" fill="none" opacity="0.7">
    <path d="M2,5 L8,4" stroke-width="0.5"/>
    <path d="M3,7 L9,6" stroke-width="0.5"/>
    <path d="M2,11 L8,12" stroke-width="0.5"/>
  </g>
  
  <!-- Simple S -->
  <path d="M6,3 Q9,2 10,4 Q10,5 9,5 L7,7 Q8,8 9,9 Q10,11 7,12 Q4,13 3,11 Q3,10 4,10 L6,8 Q5,7 4,6 Q3,4 6,3 Z" 
        fill="white" opacity="0.9"/>
  
  <!-- Tiny speed accent -->
  <polygon points="12,6 14,7 12,8" fill="white" opacity="0.6"/>
</svg> 