<!-- SpeedXPCB Icon 64x64 - Square version -->
<svg xmlns="http://www.w3.org/2000/svg" viewBox="0 0 64 64" width="64" height="64">
  <defs>
    <linearGradient id="iconGradient" x1="0%" y1="0%" x2="100%" y2="100%">
      <stop offset="0%" style="stop-color:#2B7CE9;stop-opacity:1" />
      <stop offset="50%" style="stop-color:#2563EB;stop-opacity:1" />
      <stop offset="100%" style="stop-color:#1E40AF;stop-opacity:1" />
    </linearGradient>
  </defs>
  
  <!-- Background -->
  <rect width="64" height="64" rx="8" fill="url(#iconGradient)" />
  
  <!-- Speed lines -->
  <g stroke="white" fill="none" opacity="0.8">
    <path d="M15,20 Q35,15 50,22" stroke-width="2"/>
    <path d="M18,28 Q38,23 53,30" stroke-width="1.5"/>
    <path d="M15,44 Q35,49 50,42" stroke-width="2"/>
    <path d="M18,36 Q38,41 53,34" stroke-width="1.5"/>
  </g>
  
  <!-- Stylized S -->
  <g fill="white">
    <path d="M20,18 Q30,12 38,18 Q40,20 38,22 L30,28 Q32,30 34,32 Q38,38 30,44 Q22,50 14,44 Q12,42 14,40 L22,34 Q20,32 18,30 Q14,24 22,18 Q28,12 20,18 Z" 
          opacity="0.95"/>
  </g>
  
  <!-- Speed accents -->
  <g fill="white" opacity="0.6">
    <polygon points="48,24 52,26 48,28"/>
    <polygon points="50,20 54,22 50,24"/>
    <polygon points="46,36 50,38 46,40"/>
  </g>
</svg> 